<?xml version="1.0" standalone="no"?>
<!DOCTYPE svg PUBLIC "-//W3C//DTD SVG 20010904//EN"
 "http://www.w3.org/TR/2001/REC-SVG-20010904/DTD/svg10.dtd">
<svg version="1.0" xmlns="http://www.w3.org/2000/svg"
 width="1024.000000pt" height="1024.000000pt" viewBox="0 0 1024.000000 1024.000000"
 preserveAspectRatio="xMidYMid meet">
<!--    <circle cx="513" cy="520" r="295" stroke="none"-->
<!--            stroke-width="3" fill="#ffff" />-->
    <g transform="translate(0.000000,1024.000000) scale(0.100000,-0.100000)"
fill="#5E94D4" stroke="none">
<path d="M4924 7909 c-532 -34 -1081 -242 -1535 -580 -556 -415 -955 -1029
-1074 -1657 -21 -108 -13 -156 35 -204 l28 -28 1312 0 c1467 0 1356 -6 1407
71 54 82 31 189 -53 236 l-39 23 -1157 0 c-637 0 -1158 4 -1158 8 0 36 76 241
137 369 l15 33 1316 0 1315 0 -50 -53 c-28 -29 -56 -70 -63 -91 -44 -134 90
-260 214 -201 17 8 184 168 371 356 l340 340 -320 316 c-176 174 -333 324
-350 334 -27 17 -54 19 -250 19 l-219 0 344 -339 345 -340 -1393 0 -1394 -1
33 43 c52 66 137 166 199 235 l57 62 560 0 559 0 52 26 c106 52 129 176 49
263 -45 49 -63 51 -417 51 -181 0 -330 3 -330 8 1 23 280 163 460 230 140 52
390 113 540 132 108 13 487 13 605 0 735 -82 1426 -512 1860 -1156 73 -109
200 -376 249 -524 25 -74 57 -191 72 -260 32 -147 42 -170 90 -207 50 -37 133
-39 182 -4 44 31 72 89 72 148 0 56 -65 327 -110 460 -217 646 -753 1244
-1415 1578 -457 232 -978 338 -1491 304z"/>
<path d="M6320 5763 l-164 -4 329 -329 330 -330 -2225 0 c-2172 0 -2226 -1
-2267 -20 -70 -31 -107 -115 -85 -189 15 -48 70 -100 118 -112 23 -5 975 -9
2240 -9 l2201 0 -323 -324 c-178 -178 -324 -326 -324 -330 0 -3 102 -6 227 -6
l226 0 231 228 c324 319 545 534 584 568 l34 29 -299 295 c-165 162 -356 350
-425 418 l-126 122 -59 -2 c-32 -1 -132 -4 -223 -5z"/>
<path d="M7684 4452 c-46 -29 -69 -64 -100 -150 -74 -208 -143 -353 -255 -539
-359 -597 -921 -1023 -1563 -1188 -160 -41 -294 -61 -497 -76 -349 -25 -752
41 -1063 174 -68 29 -44 35 125 36 153 1 190 11 233 61 32 39 40 67 34 129 -6
61 -36 103 -91 130 -42 20 -57 21 -508 21 l-464 0 -140 129 c-160 147 -211
198 -203 206 2 3 588 4 1302 3 l1296 -3 -320 -320 c-176 -176 -320 -323 -320
-327 0 -5 93 -8 206 -8 163 0 213 3 238 15 18 9 101 83 186 166 226 220 490
480 490 483 0 10 -658 655 -682 669 -91 49 -218 -15 -235 -117 -10 -64 5 -102
64 -166 l55 -60 -1266 0 -1266 0 -25 40 c-30 47 -165 311 -165 322 0 5 503 8
1118 8 1076 0 1119 1 1159 19 121 56 130 222 15 293 l-37 23 -1300 -1 c-1021
0 -1305 -3 -1323 -13 -31 -17 -62 -69 -62 -106 0 -110 215 -575 378 -820 134
-201 209 -292 387 -471 203 -206 404 -354 684 -505 308 -166 622 -270 981
-326 159 -24 543 -24 724 0 622 84 1144 326 1600 743 350 318 591 674 778
1142 55 140 62 165 62 229 1 77 -12 106 -67 147 -38 28 -123 33 -163 8z"/>
</g>
</svg>
